<svg id="Layer_1" data-name="Layer 1" xmlns="http://www.w3.org/2000/svg" viewBox="0 0 365.46 151.73"><defs><style>.cls-1,.cls-2{fill:#fff;}.cls-1{stroke:#fff;stroke-miterlimit:10;}</style></defs><rect class="cls-1" x="0.5" y="3.85" width="133.33" height="28.99"/><rect class="cls-1" x="0.5" y="117.89" width="133.33" height="28.99"/><rect class="cls-1" x="38.18" y="59.37" width="95.65" height="28.99"/><path class="cls-2" d="M397.09,147.28h-71v-46.6H390V84.33H326.11V42.24H394.4V25.89H310.79V163.63h86.3ZM284.89,25.89h-15.4V82.45H209.33V25.89H194V163.63h15.32V98.8h60.16v64.83h15.4Z" transform="translate(-38.63 -18.89)"/><path class="cls-2" d="M397.09,147.28v-7h-64v-32.6H397V77.33H333.11V49.24H401.4V18.89H303.79V170.62h100.3V140.28h-7v7h-7v9.34h-72.3V32.89H387.4v2.35H319.11V91.33H383v2.35H319.11v60.6h78v-7h0ZM284.89,25.89v-7h-22.4V75.45H216.32V18.89H187V170.62h29.31V105.8h46.17v64.82h29.4V18.89h-7v7h-7V156.62h-1.4V91.8H202.33v64.83H201V32.89h1.32V89.45h74.16V32.89h8.4v-7h0Z" transform="translate(-38.63 -18.89)"/></svg>